<?xml version="1.0" encoding="UTF-8"?>
<svg width="258" height="258" xmlns="http://www.w3.org/2000/svg">
    <g>
        <circle id="svg_1" fill="#eee" r="127" cy="129.000003" cx="129.000003" stroke="null"/>
        <g id="svg_2">
            <g fill="#0095ff" id="svg_3" stroke="null">
                <path d="m70.771585,137.96715l-22.72857,0c7.815814,11.716073 19.260398,20.526071 32.364505,25.191087c-4.54342,-7.493851 -7.646038,-16.693875 -9.635935,-25.191087z" id="svg_4" stroke="null"/>
                <path d="m80.40752,41.125621c-13.104107,4.665016 -24.548691,13.475014 -32.364505,25.187263l22.72857,0c1.993721,-8.513272 5.102075,-17.709472 9.635935,-25.187263z" id="svg_5" stroke="null"/>
                <path d="m68.599675,77.784618l-26.636477,0c-6.04502,14.838575 -6.59488,32.52281 0,48.71118l26.636477,0c-2.315683,-15.675984 -2.316066,-33.03405 0,-48.71118z" id="svg_6" stroke="null"/>
                <path d="m121.383186,137.96715c-1.108897,4.236752 -2.420455,8.198192 -3.923202,11.807844c-4.397351,10.549819 -10.07567,16.916419 -15.237778,17.115256c-0.080299,0.003824 -0.160599,0.003824 -0.240898,0.003824l-0.003824,0c-0.080299,0 -0.164423,0 -0.244722,-0.003824c-5.158284,-0.199219 -10.836603,-6.565437 -15.233954,-17.115256c-1.506571,-3.609652 -2.818129,-7.571092 -3.923202,-11.807844l38.807581,0l-0.000001,0z" id="svg_7" stroke="null"/>
                <path d="m121.383186,66.313267l-38.807581,0c1.105073,-4.236752 2.416631,-8.198192 3.923202,-11.807844c4.397351,-10.549819 10.07567,-16.912595 15.233954,-17.111432c0.080299,-0.003824 0.164423,-0.003824 0.244722,-0.003824l0.003824,0c0.080299,0 0.160599,0 0.240898,0.003824c5.162108,0.198837 10.840427,6.561613 15.237778,17.111432c1.502747,3.609652 2.814305,7.570709 3.923202,11.807844l0.000001,0z" id="svg_8" stroke="null"/>
                <path d="m123.769227,126.495799l-43.579663,0c-2.473988,-15.5628 -2.473988,-33.152205 0,-48.71118l43.579663,0c2.477812,15.524562 2.473988,33.209561 0,48.71118z" id="svg_9" stroke="null"/>
            </g>
            <path d="m133.187206,66.313267l22.72857,0c-7.815814,-11.712249 -19.260398,-20.522247 -32.364505,-25.187263c4.524301,7.460967 7.643361,16.655255 9.635935,25.187263z" fill="#005fe4" id="svg_10" stroke="null"/>
            <path d="m123.551271,163.158237c13.107931,-4.665016 24.552515,-13.475014 32.364505,-25.191087l-22.72857,0c-1.996397,8.548068 -5.121194,17.745033 -9.635935,25.191087z" fill="#005fe4" id="svg_11" stroke="null"/>
            <path d="m161.995592,77.784618l-26.636477,0c2.315683,15.675984 2.316066,33.033667 0,48.71118l26.636477,0c6.564672,-16.132926 6.085169,-33.756362 0,-48.71118z" fill="#005fe4" id="svg_12" stroke="null"/>
            <path d="m101.981307,137.96715l19.401878,0c-1.108897,4.236752 -2.420455,8.198192 -3.923202,11.807844c-4.397351,10.549819 -10.07567,16.916419 -15.237778,17.115256c-0.080299,0.003824 -0.160599,0.003824 -0.240898,0.003824l0,-28.926924z" fill="#005fe4" id="svg_13" stroke="null"/>
            <path d="m121.383186,66.313267l-19.401878,0l0,-28.923482c0.080299,0 0.160599,0 0.240898,0.003824c5.162108,0.198837 10.840427,6.561613 15.237778,17.111432c1.502747,3.610034 2.814305,7.571092 3.923202,11.808226z" fill="#005fe4" id="svg_14" stroke="null"/>
            <path d="m123.769227,126.495799l-21.787919,0l0,-48.71118l21.787919,0c2.477812,15.524562 2.473988,33.209561 0,48.71118z" fill="#005fe4" id="svg_15" stroke="null"/>
            <path d="m220.779001,159.922933c0,33.465755 -27.22534,60.687271 -60.687271,60.687271c-33.465755,0 -60.691095,-27.221516 -60.691095,-60.687271s27.22534,-60.691095 60.691095,-60.691095c33.461931,0 60.687271,27.22534 60.687271,60.691095z" fill="#ff9100" id="svg_16" stroke="null"/>
            <path d="m220.779001,159.922933c0,33.465755 -27.22534,60.687271 -60.687271,60.687271l0,-121.378366c33.461931,0 60.687271,27.22534 60.687271,60.691095z" fill="#ff4b00" id="svg_17" stroke="null"/>
            <path d="m209.30765,159.922933c0,27.137393 -22.074703,49.212096 -49.21592,49.21592l-0.003824,0c-27.137393,0 -49.21592,-22.078527 -49.21592,-49.21592c0,-27.141217 22.078527,-49.219744 49.21592,-49.219744l0.003824,0c27.141217,0.003824 49.21592,22.078527 49.21592,49.219744z" fill="#ffe9cb" id="svg_18" stroke="null"/>
            <path d="m209.30765,159.922933c0,27.137393 -22.074703,49.212096 -49.21592,49.21592l0,-98.435664c27.141217,0.003824 49.21592,22.078527 49.21592,49.219744z" fill="#ffd17b" id="svg_19" stroke="null"/>
            <path d="m183.045904,170.985522c0,8.799673 -6.871722,16.797882 -17.218498,16.797882l0,4.997685c0,3.166093 -2.569583,5.735676 -5.735676,5.735676c-3.169917,0 -5.735676,-2.569583 -5.735676,-5.735676l0,-4.997685c-4.308257,0 -8.006238,-0.753285 -12.044919,-3.556119c-2.603997,-1.80865 -3.250216,-5.380064 -1.44539,-7.98406c1.804826,-2.600173 5.380064,-3.250216 7.98406,-1.441566c1.380386,0.95977 2.959609,1.495099 4.44706,1.510395l12.954979,0c2.950814,0 5.322707,-2.386041 5.322707,-5.326531c0,-2.936666 -2.389865,-5.326531 -5.326531,-5.326531l-12.316407,0c-9.261204,0 -16.797882,-7.536678 -16.797882,-16.797882c0,-8.809233 6.87784,-16.797882 17.222322,-16.797882l0,-4.997685c0,-3.166093 2.565759,-5.735676 5.735676,-5.735676c3.166093,0 5.735676,2.569583 5.735676,5.735676l0,4.997685c4.971301,0 10.229004,2.126406 14.063876,6.221296c2.168085,2.313389 2.049548,5.94216 -0.260017,8.110245c-2.313389,2.164262 -5.94216,2.045724 -8.110245,-0.263841c-1.52569,-1.628932 -3.605828,-2.57723 -5.712733,-2.596349l-11.880496,0c-2.94699,0 -5.322707,2.386806 -5.322707,5.326531c0,2.936666 2.389865,5.326531 5.326531,5.326531l12.316407,0c9.265028,-0.000382 16.797882,7.536295 16.797882,16.797882l0.000001,-0.000001z" fill="#ff9100" id="svg_20" stroke="null"/>
            <path d="m165.808287,143.534579l-5.716557,0l0,-22.204712c3.166093,0 5.735676,2.569583 5.735676,5.735676l0,4.997685c4.971301,0 10.229004,2.126406 14.063876,6.221296c2.168085,2.313389 2.049548,5.94216 -0.260017,8.110245c-2.313389,2.164262 -5.94216,2.045724 -8.110245,-0.263841c-1.52569,-1.629314 -3.605828,-2.577613 -5.712733,-2.596349z" fill="#ff4b00" id="svg_21" stroke="null"/>
            <path d="m183.045904,170.985522c0,8.799673 -6.871722,16.797882 -17.218498,16.797882l0,4.997685c0,3.166093 -2.569583,5.735676 -5.735676,5.735676l0,-22.204712l6.160116,0c2.950814,0 5.322707,-2.386041 5.322707,-5.326531c0,-2.936666 -2.389865,-5.326531 -5.326531,-5.326531l-6.156292,0l0,-11.471351l6.156292,0c9.265028,-0.000382 16.797882,7.536295 16.797882,16.797882z" fill="#ff4b00" id="svg_22" stroke="null"/>
        </g>
    </g>
</svg>